<svg id="b" height="32" viewBox="0 0 32 32" width="32" xmlns="http://www.w3.org/2000/svg" data-name="Layer 1"><g fill="#3f73db"><path d="m22.93 20.532c-1.481.492-2.992-.252-3.59-1.461-.258-.521.109-1.135.691-1.136h.157c.303 0 .543.207.661.486.19.449.635.765 1.152.765.689 0 1.25-.561 1.25-1.25 0-.661-.515-1.203-1.164-1.247-1.226-.083-2.376-.758-2.718-1.939-.539-1.862.851-3.564 2.631-3.564 1.179 0 2.234.746 2.645 1.789.182.461-.179.961-.675.96h-.157c-.303 0-.542-.208-.66-.486-.19-.448-.634-.763-1.151-.763-.689 0-1.25.561-1.25 1.249s.561 1.251 1.25 1.251c1.789 0 3.183 1.716 2.625 3.588-.243.815-.888 1.49-1.695 1.758z"/><path d="m21.25 11.935v-1.171c-.001-.414.334-.75.749-.751.414 0 .75.335.75.749v1.171s-1.499 0-1.499 0z"/><path d="m21.999 21.935c-.414 0-.75-.336-.75-.75v-1.25h1.5v1.25c0 .414-.336.75-.75.75z"/></g><circle cx="10.246" cy="23.275" fill="#c177e0" r=".75"/><g fill="#0b0040"><circle cx="12.75" cy="23.275" r=".75"/><rect height="1.5" rx=".75" width="5.999" x="9" y="5.24"/><rect height="1.5" rx=".75" width="3.998" x="9" y="7.813"/></g><path d="m21.999 24.75c-4.825 0-8.75-3.925-8.75-8.75s3.925-8.75 8.75-8.75 8.75 3.925 8.75 8.75-3.925 8.75-8.75 8.75zm0-16c-3.998 0-7.25 3.252-7.25 7.25s3.252 7.25 7.25 7.25 7.25-3.252 7.25-7.25-3.252-7.25-7.25-7.25z" fill="#3f73db"/><path d="m22.93 30.595c-.267 0-.535-.061-.781-.184l-2.964-1.482c-.08-.04-.176-.034-.251.016l-1.964 1.31c-.588.392-1.354.392-1.942 0l-1.964-1.31c-.074-.05-.169-.055-.249-.016l-2.964 1.482c-.562.281-1.233.239-1.756-.11l-2.067-1.381c-.486-.325-.778-.871-.778-1.456v-19.294h1.5v19.294l.111.208 2.068 1.381c.075.05.17.056.251.016l2.964-1.482c.562-.281 1.23-.239 1.753.109l1.963 1.309c.084.056.194.056.278 0l1.963-1.309c.523-.349 1.192-.39 1.754-.109l2.963 1.481c.08.04.176.034.251-.016l2.068-1.381.111-.208v-1.292c0-.414.336-.75.75-.75.414 0 .75.336.75.75v1.292c0 .585-.292 1.131-.778 1.456l-2.067 1.381c-.293.195-.633.294-.974.294z" fill="#0b0040"/><path d="m25.999 6.74c-.414 0-.75-.336-.75-.75v-.99c0-1.243-1.007-2.25-2.25-2.25h-19v-1.5h19c2.071 0 3.75 1.679 3.75 3.75v.99c0 .414-.336.75-.75.75z" fill="#0b0040"/><path d="m6.749 16.75h-2.75c-1.517 0-2.75-1.233-2.75-2.75v-10c0-1.517 1.233-2.75 2.75-2.75s2.75 1.233 2.75 2.75zm-2.75-14c-.689 0-1.25.561-1.25 1.25v10c0 .689.561 1.25 1.25 1.25h1.25v-11.25c0-.689-.561-1.25-1.25-1.25z" fill="#0b0040"/></svg>