<svg height="512" viewBox="0 0 32 32" width="512" xmlns="http://www.w3.org/2000/svg"><g id="check_out"><g><path d="m11 16c2.2060547 0 4-1.7939453 4-4s-1.7939453-4-4-4-4 1.7939453-4 4 1.7939453 4 4 4z" fill="#ffe082"/><path d="m14.9013672 17.4414063c-.3105469-.2675781-.7539063-.3154297-1.1162109-.1269531-1.7070313.8964844-3.8632813.8964844-5.5703125 0-.3623047-.1884766-.8066406-.140625-1.1162109.1269531-1.3339845 1.1464843-2.0986329 2.8076171-2.0986329 4.5585937v1c0 .5527344.4472656 1 1 1h10c.5527344 0 1-.4472656 1-1v-1c0-1.7509766-.7646484-3.4121094-2.0986328-4.5585937z" fill="#42a5f5"/><g opacity=".1"><path d="m15 12c0 2.2099609-1.7900391 4-4 4v-8c2.2099609 0 4 1.7900391 4 4z"/><path d="m17 22v1c0 .5498047-.4501953 1-1 1h-5v-6.0195313c.9697266 0 1.9404297-.2207031 2.7900391-.6708984.3603516-.1796875.7998047-.1396484 1.1103516.1308594 1.3398437 1.1494141 2.0996093 2.8095703 2.0996093 4.5595703z"/></g><path d="m30.7070313 15.2929688-6-6c-.2861328-.2861328-.7167969-.3720703-1.0898438-.2167969-.3740234.1542969-.6171875.5195312-.6171875.9238281v3h-3c-.5527344 0-1 .4472656-1 1v4c0 .5527344.4472656 1 1 1h3v3c0 .4042969.2431641.7695313.6171875.9238281.1240234.0517578.2539063.0761719.3828125.0761719.2597656 0 .515625-.1015625.7070313-.2929688l6-6c.390625-.3906249.390625-1.0234374 0-1.4140624z" fill="#ef5350"/><path d="m30.7099609 16.7099609-5.7099609 5.709961v-12.8398438l5.7099609 5.7099609c.3896485.3896485.3896485 1.0302735 0 1.4199219z" opacity=".1"/><g><path d="m16 31h-11c-2.2060547 0-4-1.7939453-4-4v-22c0-2.2060547 1.7939453-4 4-4h11c.5527344 0 1 .4472656 1 1s-.4472656 1-1 1h-11c-1.1025391 0-2 .8974609-2 2v22c0 1.1025391.8974609 2 2 2h11c.5527344 0 1 .4472656 1 1s-.4472656 1-1 1z" fill="#ffca28"/></g><g opacity=".1"><path d="m17 30c0 .5498047-.4501953 1-1 1h-5v-2h5c.5498047 0 1 .4501953 1 1z"/><path d="m16 3h-5v-2h5c.5498047 0 1 .4501953 1 1s-.4501953 1-1 1z"/></g></g></g></svg>