<svg id="Layer_1" height="512" viewBox="0 0 512 512" width="512" xmlns="http://www.w3.org/2000/svg" data-name="Layer 1"><path d="m45.79 240.28h156.72a29.53 29.53 0 0 0 29.5-29.5v-156.71a29.53 29.53 0 0 0 -29.5-29.5h-156.72a29.53 29.53 0 0 0 -29.5 29.5v156.71a29.53 29.53 0 0 0 29.5 29.5zm-11.5-186.21a11.51 11.51 0 0 1 11.5-11.5h156.72a11.51 11.51 0 0 1 11.49 11.5v156.71a11.51 11.51 0 0 1 -11.5 11.5h-156.71a11.51 11.51 0 0 1 -11.5-11.5z"/><path d="m45.79 487.43h156.72a29.53 29.53 0 0 0 29.5-29.5v-156.71a29.53 29.53 0 0 0 -29.5-29.5h-156.72a29.53 29.53 0 0 0 -29.5 29.5v156.71a29.53 29.53 0 0 0 29.5 29.5zm-11.5-186.21a11.51 11.51 0 0 1 11.5-11.5h156.72a11.51 11.51 0 0 1 11.5 11.5v156.71a11.51 11.51 0 0 1 -11.5 11.5h-156.72a11.51 11.51 0 0 1 -11.5-11.5z"/><path d="m466.21 24.57h-156.72a29.53 29.53 0 0 0 -29.49 29.5v156.71a29.53 29.53 0 0 0 29.5 29.5h156.71a29.53 29.53 0 0 0 29.5-29.5v-156.71a29.53 29.53 0 0 0 -29.5-29.5zm11.5 186.22a11.51 11.51 0 0 1 -11.5 11.5h-156.72a11.51 11.51 0 0 1 -11.5-11.5v-156.72a11.51 11.51 0 0 1 11.5-11.5h156.72a11.51 11.51 0 0 1 11.5 11.5z"/><path d="m466.21 271.72h-156.72a29.53 29.53 0 0 0 -29.5 29.5v156.71a29.53 29.53 0 0 0 29.5 29.5h156.72a29.53 29.53 0 0 0 29.5-29.5v-156.71a29.53 29.53 0 0 0 -29.5-29.5zm11.5 186.22a11.51 11.51 0 0 1 -11.5 11.5h-156.72a11.51 11.51 0 0 1 -11.5-11.5v-156.72a11.51 11.51 0 0 1 11.5-11.5h156.72a11.51 11.51 0 0 1 11.5 11.5z"/></svg>