<svg id="Layer_1" enable-background="new 0 0 512 512" viewBox="0 0 512 512" xmlns="http://www.w3.org/2000/svg"><g clip-rule="evenodd" fill-rule="evenodd"><path d="m65.84 445.94v9.66l-23.4 17.38-8.54-11.17c-.67-.88-1.92-1.06-2.8-.38-.88.67-1.05 1.92-.38 2.81l9.73 12.74c.39.51.97.79 1.6.79.43 0 .83-.13 1.18-.39l22.6-16.78v33.19h-47.83v-47.84h47.84z" fill="#87d4ed"/><path d="m65.84 410.81h-47.84v-47.84h47.84v9.66l-23.4 17.38-8.54-11.18c-.67-.88-1.92-1.05-2.8-.38s-1.05 1.92-.38 2.8l9.73 12.75c.39.51.97.79 1.6.79.43 0 .84-.13 1.18-.39l22.6-16.78v33.19z" fill="#87d4ed"/><path d="m273.53 429.39h36.54v64.39h-36.54z" fill="#ff5a5a"/><path d="m334.84 378.42h36.54v115.36h-36.54z" fill="#05e39c"/><path d="m396.15 409.37h36.54v84.41h-36.54z" fill="#fedf30"/><path d="m457.46 358.2h36.54v135.58h-36.54z" fill="#87d4ed"/><path d="m251.98 185.11c-3.14 59.63-51.08 107.57-110.71 110.69l-4.21.22v-46.82c0-1.11-.89-2-2-2s-2 .89-2 2v46.84l-4.21-.22c-62.02-3.27-110.85-54.79-110.85-116.92 0-62.12 48.84-113.64 110.86-116.9l4.21-.22v117.12c0 1.11.89 2 2 2h117.14z" fill="#87d4ed"/><path d="m180.68 133.29v-115.13l4.21.22c35.7 1.87 68.4 20.02 89.13 49.04l4.52 6.32h-32.44c-1.11 0-2 .9-2 2 0 1.11.88 2 2 2h34.54l1.13 2.1c8.2 15.2 12.91 31.98 13.83 49.23l.22 4.21h-115.14z" fill="#ff5a5a"/><path d="m61.84 489.78h-39.84v-39.84h39.84v3.65l-18.62 13.83-6.14-8.04c-2.01-2.64-5.77-3.15-8.41-1.13-2.63 2.01-3.14 5.77-1.13 8.41l9.73 12.74c1.18 1.55 2.97 2.36 4.78 2.36 1.24 0 2.49-.38 3.57-1.18l16.22-12.04zm17.09-48.88-5.09 3.78v-.74c0-3.31-2.69-6-6-6h-51.84c-3.31 0-6 2.69-6 6v51.84c0 3.31 2.69 6 6 6h51.84c3.31 0 6-2.69 6-6v-36.15l12.24-9.09c2.66-1.98 3.22-5.73 1.25-8.39-1.98-2.67-5.74-3.22-8.4-1.25zm159.58 43.91c0 3.31-2.69 6-6 6h-132.51c-3.31 0-6-2.69-6-6 0-3.32 2.69-6 6-6h132.51c3.31 0 6 2.68 6 6zm-144.51-29.9c0-3.31 2.69-6 6-6h92.02c3.32 0 6 2.69 6 6 0 3.32-2.68 6-6 6h-92.02c-3.31 0-6-2.68-6-6zm-32.16-48.1h-39.84v-39.84h39.84v3.65l-18.62 13.83-6.14-8.04c-2.01-2.64-5.77-3.14-8.41-1.13-2.63 2.01-3.14 5.77-1.13 8.41l9.73 12.74c1.18 1.55 2.97 2.36 4.78 2.36 1.24 0 2.49-.38 3.57-1.18l16.22-12.04zm17.09-48.87-5.09 3.78v-.75c0-3.31-2.69-6-6-6h-51.84c-3.31 0-6 2.69-6 6v51.84c0 3.31 2.69 6 6 6h51.84c3.31 0 6-2.69 6-6v-36.15l12.24-9.09c2.66-1.97 3.22-5.73 1.25-8.39-1.98-2.66-5.74-3.22-8.4-1.24zm159.58 43.9c0 3.31-2.69 6-6 6h-132.51c-3.31 0-6-2.69-6-6 0-3.32 2.69-6 6-6h132.51c3.31 0 6 2.68 6 6zm-144.51-29.9c0-3.31 2.69-6 6-6h92.02c3.32 0 6 2.69 6 6 0 3.32-2.68 6-6 6h-92.02c-3.31 0-6-2.68-6-6zm172.46 15.28c-2.24-2.44-2.08-6.24.37-8.48l78.07-71.58c2.24-2.05 5.66-2.1 7.97-.12l59.93 51.47 67.19-59.83h-12.06c-3.31 0-6-2.68-6-6 0-3.31 2.69-6 6-6h27.64c3.31 0 6 2.69 6 6v27.64c0 3.31-2.69 6-6 6-3.32 0-6-2.69-6-6v-14.1l-72.7 64.74c-2.25 2-5.62 2.03-7.9.08l-59.88-51.43-74.15 67.98c-1.16 1.05-2.61 1.57-4.06 1.57-1.62 0-3.24-.65-4.42-1.94zm223.54 102.56v-127.58h-28.54v127.58zm6-139.58h-40.54c-3.31 0-6 2.69-6 6v139.58c0 3.31 2.69 6 6 6h40.54c3.31 0 6-2.69 6-6v-139.58c0-3.31-2.69-6-6-6zm-67.31 139.58h-28.54v-76.41h28.54zm6-88.41h-40.54c-3.32 0-6 2.68-6 6v88.41c0 3.31 2.68 6 6 6h40.54c3.31 0 6-2.69 6-6v-88.41c0-3.32-2.69-6-6-6zm-67.31 88.41v-107.36h-28.54v107.36zm6-119.36h-40.54c-3.32 0-6 2.68-6 6v119.36c0 3.31 2.68 6 6 6h40.54c3.31 0 6-2.69 6-6v-119.36c0-3.32-2.69-6-6-6zm-67.31 119.36h-28.54v-56.39h28.54zm6-68.39h-40.54c-3.32 0-6 2.69-6 6v68.39c0 3.31 2.68 6 6 6h40.54c3.31 0 6-2.69 6-6v-68.39c0-3.31-2.69-6-6-6zm189.93-164.88c0 3.32-2.69 6-6 6h-205.01c-3.31 0-6-2.68-6-6 0-3.31 2.69-6 6-6h205.01c3.31 0 6 2.69 6 6zm0-40.63c0 3.32-2.69 6-6 6h-205.01c-3.31 0-6-2.68-6-6 0-3.31 2.69-6 6-6h205.01c3.31 0 6 2.69 6 6zm0-40.63c0 3.31-2.69 6-6 6h-205.01c-3.31 0-6-2.69-6-6s2.69-6 6-6h205.01c3.31 0 6 2.69 6 6zm-162.56-46.63h156.56c3.31 0 6 2.69 6 6s-2.69 6-6 6h-156.56c-3.32 0-6-2.69-6-6s2.68-6 6-6zm-154.76-106.24c35.46 1.86 66.64 20.15 86.08 47.37h-24.66c-3.32 0-6 2.69-6 6 0 3.32 2.68 6 6 6h32.15c7.71 14.29 12.44 30.42 13.35 47.54h-106.92zm-6 118.91h119.08c1.59 0 3.11-.65 4.24-1.78 1.12-1.12 1.76-2.67 1.76-4.26-.01-19.13-4.34-37.27-12.06-53.5h112.48v26.55c0 3.32 2.69 6 6 6s6-2.68 6-6v-32.55c0-3.31-2.69-6-6-6h-125.02c-22.05-35.68-61.51-59.52-106.43-59.53 0 0-.04 0-.05 0-3.31 0-6 2.69-6 6v119.07c0 3.31 2.69 6 6 6zm-37.61 150.52c57.59-3.02 103.89-49.33 106.92-106.91h-112.92c-3.31 0-6-2.68-6-6v-112.91c-59.57 3.13-107.07 52.58-107.07 112.91 0 60.34 47.5 109.79 107.07 112.92v-42.62c0-3.32 2.69-6 6-6 3.32 0 6 2.68 6 6zm118.79-114.77s0 0 0-.01c0-.01-.01-.02-.01-.02-.52-1.61-1.71-2.92-3.24-3.6-.02-.01-.04-.02-.06-.03-.01 0-.01-.01-.02-.01h-.01c-.01 0-.01-.01-.01-.01h-.01c-.01 0-.01-.01-.02-.01-.01 0-.01 0-.02-.01h-.01c-.01-.01-.01-.01-.02-.01-.01 0-.01 0-.02-.01-.01 0-.02-.01-.03-.01-.02-.01-.05-.02-.07-.03-.01 0-.01 0-.02 0v-.01h-.01c-.01 0-.01 0-.01 0-.01-.01-.01-.01-.02-.01 0 0 0 0-.01 0 0-.01 0-.01 0-.01-.01 0-.02 0-.02 0-.01-.01-.01-.01-.02-.01 0 0-.01 0-.02 0 0-.01-.01-.01-.01-.01-.01 0-.01 0-.01-.01-.01 0-.01 0-.01 0h-.01s0 0-.01 0c0 0 0-.01-.01-.01s-.01 0-.02 0c0 0 0 0 0-.01-.01 0-.01 0-.02 0 0 0-.01 0-.02-.01h-.01c-.01 0-.01 0-.02-.01h-.01-.01c0-.01-.01-.01-.01-.01-.01 0-.01 0-.02 0-.01-.01-.01-.01-.02-.01h-.01c-.01 0-.01-.01-.02-.01-.01 0-.01 0-.02-.01 0 0-.01 0-.02 0s-.01 0-.01-.01c-.01 0-.02 0-.02 0-.49-.15-1.01-.23-1.54-.25h-.01c-.01 0-.01 0-.01 0-.22 0-.44 0-.65.02h-112.58v-112.36c.03-.23.04-.47.04-.71 0-3.31-2.68-6-6-6h-.04c-68.96 0-125.07 56.11-125.07 125.07 0 66.96 52.88 121.79 119.07 124.93v35.15c0 3.31 2.69 6 6 6 3.32 0 6-2.69 6-6v-35.15c66.19-3.14 119.07-57.97 119.07-124.93 0-.02 0-.07 0-.1 0-.61-.1-1.2-.28-1.76z"/></g></svg>